<?xml version="1.0" encoding="utf-8"?>
<svg xmlns="http://www.w3.org/2000/svg" xmlns:xlink="http://www.w3.org/1999/xlink" style="margin: auto; background: rgba(226, 156, 77, 0); display: block; shape-rendering: auto;" width="204px" height="204px" viewBox="0 0 100 100" preserveAspectRatio="xMidYMid">
<g transform="rotate(0 50 50)">
  <rect x="48.5" y="18" rx="1.5" ry="2.04" width="3" height="12" fill="#6397b5">
    <animate attributeName="opacity" values="1;0" keyTimes="0;1" dur="1.7543859649122806s" begin="-1.6620498614958445s" repeatCount="indefinite"></animate>
  </rect>
</g><g transform="rotate(18.94736842105263 50 50)">
  <rect x="48.5" y="18" rx="1.5" ry="2.04" width="3" height="12" fill="#6397b5">
    <animate attributeName="opacity" values="1;0" keyTimes="0;1" dur="1.7543859649122806s" begin="-1.5697137580794087s" repeatCount="indefinite"></animate>
  </rect>
</g><g transform="rotate(37.89473684210526 50 50)">
  <rect x="48.5" y="18" rx="1.5" ry="2.04" width="3" height="12" fill="#6397b5">
    <animate attributeName="opacity" values="1;0" keyTimes="0;1" dur="1.7543859649122806s" begin="-1.4773776546629729s" repeatCount="indefinite"></animate>
  </rect>
</g><g transform="rotate(56.8421052631579 50 50)">
  <rect x="48.5" y="18" rx="1.5" ry="2.04" width="3" height="12" fill="#6397b5">
    <animate attributeName="opacity" values="1;0" keyTimes="0;1" dur="1.7543859649122806s" begin="-1.385041551246537s" repeatCount="indefinite"></animate>
  </rect>
</g><g transform="rotate(75.78947368421052 50 50)">
  <rect x="48.5" y="18" rx="1.5" ry="2.04" width="3" height="12" fill="#6397b5">
    <animate attributeName="opacity" values="1;0" keyTimes="0;1" dur="1.7543859649122806s" begin="-1.2927054478301014s" repeatCount="indefinite"></animate>
  </rect>
</g><g transform="rotate(94.73684210526316 50 50)">
  <rect x="48.5" y="18" rx="1.5" ry="2.04" width="3" height="12" fill="#6397b5">
    <animate attributeName="opacity" values="1;0" keyTimes="0;1" dur="1.7543859649122806s" begin="-1.2003693444136656s" repeatCount="indefinite"></animate>
  </rect>
</g><g transform="rotate(113.6842105263158 50 50)">
  <rect x="48.5" y="18" rx="1.5" ry="2.04" width="3" height="12" fill="#6397b5">
    <animate attributeName="opacity" values="1;0" keyTimes="0;1" dur="1.7543859649122806s" begin="-1.1080332409972298s" repeatCount="indefinite"></animate>
  </rect>
</g><g transform="rotate(132.6315789473684 50 50)">
  <rect x="48.5" y="18" rx="1.5" ry="2.04" width="3" height="12" fill="#6397b5">
    <animate attributeName="opacity" values="1;0" keyTimes="0;1" dur="1.7543859649122806s" begin="-1.015697137580794s" repeatCount="indefinite"></animate>
  </rect>
</g><g transform="rotate(151.57894736842104 50 50)">
  <rect x="48.5" y="18" rx="1.5" ry="2.04" width="3" height="12" fill="#6397b5">
    <animate attributeName="opacity" values="1;0" keyTimes="0;1" dur="1.7543859649122806s" begin="-0.9233610341643581s" repeatCount="indefinite"></animate>
  </rect>
</g><g transform="rotate(170.52631578947367 50 50)">
  <rect x="48.5" y="18" rx="1.5" ry="2.04" width="3" height="12" fill="#6397b5">
    <animate attributeName="opacity" values="1;0" keyTimes="0;1" dur="1.7543859649122806s" begin="-0.8310249307479223s" repeatCount="indefinite"></animate>
  </rect>
</g><g transform="rotate(189.47368421052633 50 50)">
  <rect x="48.5" y="18" rx="1.5" ry="2.04" width="3" height="12" fill="#6397b5">
    <animate attributeName="opacity" values="1;0" keyTimes="0;1" dur="1.7543859649122806s" begin="-0.7386888273314864s" repeatCount="indefinite"></animate>
  </rect>
</g><g transform="rotate(208.42105263157896 50 50)">
  <rect x="48.5" y="18" rx="1.5" ry="2.04" width="3" height="12" fill="#6397b5">
    <animate attributeName="opacity" values="1;0" keyTimes="0;1" dur="1.7543859649122806s" begin="-0.6463527239150507s" repeatCount="indefinite"></animate>
  </rect>
</g><g transform="rotate(227.3684210526316 50 50)">
  <rect x="48.5" y="18" rx="1.5" ry="2.04" width="3" height="12" fill="#6397b5">
    <animate attributeName="opacity" values="1;0" keyTimes="0;1" dur="1.7543859649122806s" begin="-0.5540166204986149s" repeatCount="indefinite"></animate>
  </rect>
</g><g transform="rotate(246.31578947368422 50 50)">
  <rect x="48.5" y="18" rx="1.5" ry="2.04" width="3" height="12" fill="#6397b5">
    <animate attributeName="opacity" values="1;0" keyTimes="0;1" dur="1.7543859649122806s" begin="-0.46168051708217905s" repeatCount="indefinite"></animate>
  </rect>
</g><g transform="rotate(265.2631578947368 50 50)">
  <rect x="48.5" y="18" rx="1.5" ry="2.04" width="3" height="12" fill="#6397b5">
    <animate attributeName="opacity" values="1;0" keyTimes="0;1" dur="1.7543859649122806s" begin="-0.3693444136657432s" repeatCount="indefinite"></animate>
  </rect>
</g><g transform="rotate(284.2105263157895 50 50)">
  <rect x="48.5" y="18" rx="1.5" ry="2.04" width="3" height="12" fill="#6397b5">
    <animate attributeName="opacity" values="1;0" keyTimes="0;1" dur="1.7543859649122806s" begin="-0.27700831024930744s" repeatCount="indefinite"></animate>
  </rect>
</g><g transform="rotate(303.1578947368421 50 50)">
  <rect x="48.5" y="18" rx="1.5" ry="2.04" width="3" height="12" fill="#6397b5">
    <animate attributeName="opacity" values="1;0" keyTimes="0;1" dur="1.7543859649122806s" begin="-0.1846722068328716s" repeatCount="indefinite"></animate>
  </rect>
</g><g transform="rotate(322.10526315789474 50 50)">
  <rect x="48.5" y="18" rx="1.5" ry="2.04" width="3" height="12" fill="#6397b5">
    <animate attributeName="opacity" values="1;0" keyTimes="0;1" dur="1.7543859649122806s" begin="-0.0923361034164358s" repeatCount="indefinite"></animate>
  </rect>
</g><g transform="rotate(341.05263157894734 50 50)">
  <rect x="48.5" y="18" rx="1.5" ry="2.04" width="3" height="12" fill="#6397b5">
    <animate attributeName="opacity" values="1;0" keyTimes="0;1" dur="1.7543859649122806s" begin="0s" repeatCount="indefinite"></animate>
  </rect>
</g>
<!-- [ldio] generated by https://loading.io/ --></svg>